<?xml version="1.0" encoding="utf-8"?>
<!-- Generator: Adobe Illustrator 16.0.0, SVG Export Plug-In . SVG Version: 6.00 Build 0)  -->
<!DOCTYPE svg PUBLIC "-//W3C//DTD SVG 1.1//EN" "http://www.w3.org/Graphics/SVG/1.1/DTD/svg11.dtd">
<svg version="1.1" xmlns="http://www.w3.org/2000/svg" xmlns:xlink="http://www.w3.org/1999/xlink" x="0px" y="0px"
	 width="848.842px" height="368px" viewBox="0 0 848.842 368" enable-background="new 0 0 848.842 368" xml:space="preserve">

<title>Kolding Kommune IT og Digitalisering</title>

<desc>Logo for Kolding Kommunes IT og Digitalisering afdeling med sloganet: Vi designer for fremtiden. Logoet illustrere byens røde våbenskjold med silhouetten af en mus.</desc>

	<!--Background-->
	<path fill="#F4F4F4" stroke="#000000" d="M848.842,356c0,6.627-5.673,12-12.669,12H12.669C5.672,368,0,362.627,0,356V12
		C0,5.373,5.672,0,12.669,0h823.504c6.996,0,12.669,5.373,12.669,12V356z"/>
	<!--Background-->

	<g><!--Kolding-->
		<path d="M342.345,81.507h-2.72v30.426h-20.499V46.394h20.499v29.771h2.534l36.791-29.771h21.441l-38.198,30.053l40.725,35.486
			h-28.562L342.345,81.507z"/>
		<path d="M440.46,113.335c-36.612,0-35.674-16.576-35.674-26.023c0-9.363-0.938-26.033,35.674-26.033
			c36.512,0,35.573,16.67,35.573,26.033C476.033,96.759,476.972,113.335,440.46,113.335z M440.362,70.361
			c-14.326,0-15.728,5.529-15.728,16.951c0,11.414,1.401,16.941,15.728,16.941c14.323,0,15.729-5.527,15.729-16.941
			C456.091,75.89,454.686,70.361,440.362,70.361z"/>
		<path d="M492.174,111.933V40.591h18.723v71.342H492.174z"/>
		<path d="M562.106,113.242c-17.227,0-35.016-2.527-35.016-24.434v-3.184c0-8.891,3.559-23.5,30.992-23.5
			c7.207,0,17.035,0.748,17.035,0.748V40.685h18.818v70.873C593.936,111.558,575.026,113.242,562.106,113.242z M575.118,72.326
			c-1.965-0.184-8.145-0.744-13.193-0.744c-9.088,0-14.984,2.807-14.984,13.664v5.061c0,10.861,5.896,13.672,14.984,13.672
			c5.049,0,11.229-0.654,13.193-0.756V72.326z"/>
		<path d="M612.793,52.292V40.685h19.104v11.607H612.793z M612.891,111.933V62.779h18.814v49.154H612.891z"/>
		<path d="M694.805,111.933V83.47c0-7.305-1.035-10.957-9.184-10.957c-4.77,0-16.096,3.564-16.096,3.564v35.855h-18.824V62.779h17.51
			v5.15c2.904-1.221,17.979-5.992,27.527-5.992c11.422,0,17.881,5.9,17.881,18.344v31.652H694.805z"/>
		<path d="M784.03,71.115c0.752,0.65,3.184,3.373,3.184,8.426c0,14.416-17.412,15.443-28.178,15.443
			c-3.848,0-6.932-0.184-7.027-0.184c0,0-3.744,1.686-3.744,4.4c0,3.275,3.367,3.086,6.371,3.086h12.264
			c8.518,0,23.588,0.189,23.588,13.205c0,10.299-7.768,19.191-31.828,19.191c-16.197,0-26.5-1.779-26.5-1.779v-9.926
			c0,0,11.336,1.877,25.188,1.877c5.904,0,16.008,0.18,16.008-5.902c0-4.959-5.613-4.213-11.979-4.213h-9.459
			c-7.111,0-20.971-1.029-20.971-10.674c0-7.492,7.68-9.83,11.516-10.861c-0.092-0.092-0.279-1.119-0.373-1.215
			c-3.463-1.027-12.547-3.094-12.547-14.234c0-13.572,18.912-15.818,29.023-15.818c7.211,0,13.012,1.215,13.012,1.215l23.684-0.557
			v8.52H784.03z M758.377,69.894c-7.396,0-11.611,1.871-11.611,8.332c0,5.619,2.531,8.43,11.98,8.43
			c8.053,0,11.242-2.529,11.242-8.43S766.614,69.894,758.377,69.894z"/>
	</g><!--/Kolding-->

	<g><!--Kommune-->
		<path d="M329.977,149.835h-1.603v19.358h-9.235v-41.446h9.235v19.006h1.603l24.924-19.006h11.134l-26.409,19.541l28.417,21.905
			h-13.551L329.977,149.835z"/>
		<path d="M391.85,170.083c-21.786,0-20.953-11.37-20.953-16.459c0-5.035-0.833-16.465,20.953-16.465
			c21.793,0,20.963,11.43,20.963,16.465C412.813,158.714,413.643,170.083,391.85,170.083z M391.85,141.962
			c-10.058,0-12.074,3.133-12.074,11.662c0,8.52,2.017,11.662,12.074,11.662c10.015,0,12.083-3.143,12.083-11.662
			C403.933,145.095,401.864,141.962,391.85,141.962z"/>
		<path d="M479.505,169.193v-18.651c0-5.564-1.422-7.463-7.283-7.463c-3.316,0-10.719,2.135-12.316,2.551
			c0.234,1.123,0.357,2.367,0.357,3.844v19.719h-8.352v-18.651c0-5.564-1.48-7.463-7.284-7.463c-3.728,0-11.956,2.668-11.956,2.668
			v23.446h-8.352v-31.086h7.759v3.318c0.765-0.297,10.714-3.848,16.46-3.848c4.741,0,8.111,1.063,9.944,4.025
			c1.544-0.654,12.202-4.025,17.646-4.025c7.759,0,11.783,3.016,11.783,11.896v19.719H479.505z"/>
		<path d="M556.022,169.193v-18.651c0-5.564-1.42-7.463-7.283-7.463c-3.314,0-10.709,2.135-12.309,2.551
			c0.232,1.123,0.352,2.367,0.352,3.844v19.719h-8.346v-18.651c0-5.564-1.488-7.463-7.279-7.463c-3.732,0-11.965,2.668-11.965,2.668
			v23.446h-8.354v-31.086h7.76v3.318c0.771-0.297,10.719-3.848,16.461-3.848c4.732,0,8.111,1.063,9.947,4.025
			c1.539-0.654,12.195-4.025,17.645-4.025c7.752,0,11.781,3.016,11.781,11.896v19.719H556.022z"/>
		<path d="M606.553,169.193v-3.258c-1.01,0.42-11.658,3.792-17.588,3.792c-7.814,0-11.783-3.02-11.783-11.899v-19.721h8.354v18.654
			c0,5.564,1.479,7.514,7.338,7.514c3.73,0,13.029-2.664,13.029-2.664v-23.504h8.346v31.086H606.553z"/>
		<path d="M656.077,169.193v-18.651c0-5.564-1.482-7.463-7.346-7.463c-3.729,0-13.023,2.668-13.023,2.668v23.446h-8.352v-31.086
			h7.758v3.318c0.893-0.355,11.723-3.848,17.588-3.848c7.754,0,11.719,3.016,11.719,11.896v19.719H656.077z"/>
		<path d="M714.897,156.163h-30.318v0.359c0.115,8.818,6.627,8.646,13.436,8.646c6.516,0,12.441-0.775,13.68-0.945v4.793
			c-1.178,0.176-7.582,1.119-13.619,1.119c-16.871,0-22.383-4.497-22.383-15.571v-3.016c0-8.225,5.449-14.273,19.777-14.273
			c14.391,0,19.723,4.797,19.723,14.332C715.192,153.919,714.897,156.163,714.897,156.163z M706.428,149.118
			c-0.063-5.502-3.732-7.576-10.842-7.633c-7.572,0-10.951,2.303-11.068,9.057v1.066h21.91V149.118z"/>
	</g><!--/Kommune-->

	<g><!--IT & Digitalisering-->
		<path d="M322.908,228.518v-28.555h4.668v28.555H322.908z"/>
		<path d="M344.979,228.518h-4.668v-24.551h-8.398v-4.004h21.465v4.004h-8.398V228.518z"/>
		<path d="M366.248,220.959c0-1.706,0.417-3.193,1.25-4.463c0.833-1.27,2.337-2.529,4.512-3.779c-1.237-1.445-2.08-2.666-2.529-3.662
			s-0.674-2.028-0.674-3.096c0-1.979,0.706-3.542,2.119-4.688c1.413-1.146,3.311-1.719,5.693-1.719c2.305,0,4.114,0.557,5.43,1.67
			c1.315,1.113,1.973,2.614,1.973,4.502c0,1.484-0.439,2.832-1.318,4.043s-2.347,2.422-4.404,3.633l6.758,6.523
			c1.055-1.394,1.934-3.438,2.637-6.133h4.727c-0.912,3.698-2.37,6.712-4.375,9.043l5.879,5.684h-5.918l-2.91-2.832
			c-1.328,1.067-2.744,1.872-4.248,2.412s-3.167,0.811-4.99,0.811c-2.995,0-5.345-0.71-7.051-2.129
			C367.101,225.36,366.248,223.42,366.248,220.959z M376.092,224.963c2.383,0,4.42-0.696,6.113-2.09l-7.48-7.363
			c-1.38,0.886-2.331,1.716-2.852,2.49c-0.521,0.774-0.781,1.657-0.781,2.646c0,1.276,0.452,2.314,1.357,3.115
			C373.354,224.563,374.568,224.963,376.092,224.963z M373.182,206.115c0,0.82,0.218,1.595,0.654,2.324
			c0.436,0.729,1.045,1.504,1.826,2.324c1.471-0.833,2.503-1.611,3.096-2.334c0.592-0.723,0.889-1.533,0.889-2.432
			c0-0.847-0.283-1.523-0.85-2.031s-1.318-0.762-2.256-0.762c-1.029,0-1.846,0.264-2.451,0.791S373.182,205.229,373.182,206.115z"/>
		<path d="M431.365,213.967c0,4.714-1.309,8.317-3.926,10.811s-6.387,3.74-11.309,3.74h-7.988v-28.555h8.828
			c4.545,0,8.08,1.224,10.605,3.672C430.103,206.083,431.365,209.526,431.365,213.967z M426.443,214.123
			c0-6.836-3.195-10.254-9.59-10.254h-4.043v20.723h3.32C423.005,224.592,426.443,221.103,426.443,214.123z"/>
		<path d="M437.498,228.518v-28.555h4.668v28.555H437.498z"/>
		<path d="M461.384,213.029h10.508v14.336c-1.719,0.56-3.369,0.957-4.951,1.191s-3.291,0.352-5.127,0.352
			c-4.323,0-7.656-1.279-10-3.838s-3.516-6.169-3.516-10.83c0-4.597,1.321-8.193,3.965-10.791s6.282-3.896,10.918-3.896
			c2.981,0,5.808,0.573,8.477,1.719l-1.641,3.887c-2.317-1.067-4.636-1.602-6.953-1.602c-3.047,0-5.456,0.957-7.227,2.871
			s-2.656,4.531-2.656,7.852c0,3.489,0.798,6.143,2.393,7.959s3.89,2.725,6.885,2.725c1.511,0,3.125-0.188,4.844-0.566v-7.363h-5.918
			V213.029z"/>
		<path d="M478.748,228.518v-28.555h4.668v28.555H478.748z"/>
		<path d="M500.818,228.518h-4.668v-24.551h-8.398v-4.004h21.465v4.004h-8.398V228.518z"/>
		<path d="M531.306,228.518l-2.852-7.93h-10.918l-2.793,7.93h-4.922l10.684-28.672h5.078l10.684,28.672H531.306z M527.224,216.564
			l-2.676-7.773c-0.195-0.521-0.466-1.341-0.811-2.461s-0.583-1.94-0.713-2.461c-0.352,1.602-0.866,3.353-1.543,5.254l-2.578,7.441
			H527.224z"/>
		<path d="M540.037,228.518v-28.555h4.668v24.551h12.09v4.004H540.037z"/>
		<path d="M561.716,228.518v-28.555h4.668v28.555H561.716z"/>
		<path d="M590.388,220.764c0,2.539-0.918,4.531-2.754,5.977s-4.368,2.168-7.598,2.168s-5.872-0.501-7.93-1.504v-4.414
			c1.302,0.612,2.686,1.094,4.15,1.445s2.829,0.527,4.092,0.527c1.849,0,3.213-0.352,4.092-1.055s1.318-1.647,1.318-2.832
			c0-1.067-0.403-1.973-1.211-2.715s-2.474-1.621-5-2.637c-2.604-1.055-4.44-2.259-5.508-3.613s-1.602-2.981-1.602-4.883
			c0-2.383,0.847-4.258,2.539-5.625s3.965-2.051,6.816-2.051c2.734,0,5.456,0.599,8.164,1.797l-1.484,3.809
			c-2.539-1.067-4.805-1.602-6.797-1.602c-1.511,0-2.656,0.329-3.438,0.986s-1.172,1.526-1.172,2.607
			c0,0.742,0.156,1.377,0.469,1.904s0.827,1.025,1.543,1.494s2.005,1.087,3.867,1.855c2.097,0.872,3.633,1.687,4.609,2.441
			s1.692,1.608,2.148,2.559S590.388,219.475,590.388,220.764z"/>
		<path d="M612.068,228.518h-16.152v-28.555h16.152v3.945h-11.484v7.773h10.762v3.906h-10.762v8.965h11.484V228.518z"/>
		<path d="M622.908,217.111v11.406h-4.668v-28.555h8.066c3.685,0,6.413,0.69,8.184,2.07s2.656,3.464,2.656,6.25
			c0,3.555-1.849,6.087-5.547,7.598l8.066,12.637h-5.313l-6.836-11.406H622.908z M622.908,213.244h3.242
			c2.175,0,3.75-0.403,4.727-1.211s1.465-2.005,1.465-3.594c0-1.614-0.527-2.773-1.582-3.477s-2.644-1.055-4.766-1.055h-3.086
			V213.244z"/>
		<path d="M643.806,228.518v-28.555h4.668v28.555H643.806z"/>
		<path d="M679.802,228.518h-5.723l-14.043-22.754h-0.156l0.098,1.27c0.183,2.422,0.273,4.636,0.273,6.641v14.844h-4.238v-28.555
			h5.664l14.004,22.637h0.117c-0.026-0.3-0.078-1.39-0.156-3.271s-0.117-3.35-0.117-4.404v-14.961h4.277V228.518z"/>
		<path d="M699.021,213.029h10.508v14.336c-1.719,0.56-3.369,0.957-4.951,1.191s-3.291,0.352-5.127,0.352
			c-4.323,0-7.656-1.279-10-3.838s-3.516-6.169-3.516-10.83c0-4.597,1.321-8.193,3.965-10.791s6.282-3.896,10.918-3.896
			c2.981,0,5.808,0.573,8.477,1.719l-1.641,3.887c-2.317-1.067-4.636-1.602-6.953-1.602c-3.047,0-5.456,0.957-7.227,2.871
			s-2.656,4.531-2.656,7.852c0,3.489,0.798,6.143,2.393,7.959s3.89,2.725,6.885,2.725c1.511,0,3.125-0.188,4.844-0.566v-7.363h-5.918
			V213.029z"/>
	</g><!--/IT & Digitalisering-->

	<!--HorizontalLine-->
	<rect x="319.126" y="251.768" width="476.134" height="4.912"/>
	<!--/HorizontalLine-->

	<g><!--Vi Designer for Fremtiden-->
		<path d="M327.452,319.624l-8.063-37.625h5.375l3.969,20.156l1.385,9.406l1.428-9.406l3.969-20.156h5.375l-8.063,37.625H327.452z"/>
		<path d="M344.081,319.624v-37.625h5.375v37.625H344.081z"/>
		<path d="M363.943,319.624v-37.625h8.336c3.933,0,6.708,0.805,8.324,2.414c1.617,1.61,2.426,4.389,2.426,8.336v14.781
			c0,4.129-0.823,7.178-2.468,9.144c-1.645,1.967-4.419,2.95-8.325,2.95H363.943z M369.318,315.593h2.961
			c0.881,0,1.637-0.08,2.268-0.241c0.629-0.161,1.141-0.455,1.532-0.882s0.7-0.833,0.924-1.218s0.381-0.983,0.473-1.796
			c0.091-0.812,0.144-1.479,0.157-2.005c0.014-0.524,0.021-1.34,0.021-2.446c0-0.363,0-0.637,0-0.818v-12.094
			c0-0.686-0.004-1.231-0.011-1.638c-0.008-0.406-0.028-0.885-0.063-1.438c-0.035-0.553-0.087-0.99-0.157-1.313
			c-0.07-0.321-0.168-0.682-0.294-1.081c-0.126-0.398-0.283-0.71-0.473-0.935c-0.188-0.224-0.42-0.458-0.692-0.703
			c-0.273-0.244-0.588-0.427-0.945-0.546c-0.356-0.118-0.773-0.217-1.249-0.294c-0.476-0.076-1.008-0.115-1.596-0.115h-2.855V315.593
			z"/>
		<path d="M387.731,319.624v-37.625h14.781v4.031h-9.406v12.094h6.719v4.031h-6.719v13.438h9.406v4.031H387.731z"/>
		<path d="M415.614,320.002c-3.387,0-5.973-0.994-7.758-2.981c-1.784-1.987-2.781-4.703-2.992-8.146l5.375-1.344
			c0.267,5.375,2.059,8.063,5.375,8.063c2.688,0,4.031-1.344,4.031-4.031c0-0.798-0.108-1.536-0.325-2.215s-0.549-1.302-0.997-1.869
			c-0.448-0.566-0.854-1.021-1.218-1.364s-0.86-0.767-1.491-1.271l-6.719-5.375c-1.231-0.966-2.215-2.194-2.949-3.685
			c-0.735-1.491-1.103-3.188-1.103-5.092c0-2.771,0.86-4.976,2.583-6.614c1.721-1.637,4.003-2.456,6.844-2.456
			c3.052,0,5.477,0.745,7.275,2.236c1.799,1.49,2.908,3.601,3.328,6.33c0.042,0.294,0.091,0.7,0.146,1.218l-5.375,1.344
			c-0.014-0.238-0.049-0.595-0.104-1.07c-0.238-1.708-0.773-3.076-1.606-4.105c-0.833-1.028-2.054-1.543-3.664-1.543
			c-1.287,0-2.281,0.36-2.98,1.081c-0.7,0.722-1.051,1.726-1.051,3.013c0,2.114,0.896,3.885,2.688,5.313l6.719,5.375
			c3.584,2.897,5.375,6.361,5.375,10.393c0,2.758-0.85,4.914-2.551,6.467C420.77,319.226,418.484,320.002,415.614,320.002z"/>
		<path d="M429.199,319.624v-37.625h5.375v37.625H429.199z"/>
		<path d="M450.405,320.002c-1.722,0-3.216-0.245-4.482-0.735c-1.268-0.489-2.299-1.154-3.098-1.994
			c-0.797-0.84-1.435-1.91-1.91-3.213c-0.476-1.301-0.805-2.673-0.986-4.115c-0.183-1.441-0.273-3.1-0.273-4.976v-9.532
			c0-9.21,3.653-13.815,10.96-13.815c1.75,0,3.269,0.263,4.556,0.787c1.288,0.525,2.331,1.292,3.129,2.3s1.399,2.187,1.806,3.537
			c0.406,1.352,0.644,2.915,0.714,4.693c0.014,0.252,0.021,0.637,0.021,1.154h-5.375v-1.134c-0.015-0.882-0.061-1.641-0.137-2.278
			c-0.077-0.637-0.218-1.263-0.42-1.879c-0.203-0.616-0.479-1.116-0.83-1.501c-0.35-0.385-0.815-0.693-1.396-0.924
			c-0.581-0.231-1.271-0.347-2.068-0.347c-1.092,0-2.013,0.199-2.761,0.599c-0.749,0.398-1.323,0.979-1.722,1.742
			c-0.399,0.764-0.683,1.604-0.851,2.52c-0.168,0.917-0.252,1.984-0.252,3.202v12.094c0,0.896,0.028,1.704,0.084,2.425
			c0.056,0.722,0.15,1.456,0.283,2.205s0.329,1.396,0.588,1.942c0.259,0.545,0.581,1.039,0.966,1.479
			c0.385,0.441,0.868,0.777,1.449,1.008c0.58,0.231,1.249,0.347,2.005,0.347c0.896,0,1.673-0.175,2.33-0.525
			c0.658-0.35,1.18-0.801,1.564-1.354s0.689-1.257,0.914-2.11c0.224-0.854,0.374-1.7,0.451-2.54c0.076-0.84,0.115-1.799,0.115-2.877
			v-1.344h-5.375v-3.989h10.75v18.771h-4.031l-1.344-4.031C454.73,318.532,452.938,320.002,450.405,320.002z"/>
		<path d="M465.501,319.624v-37.625h4.031l9.406,23.264v-23.264h5.375v37.625h-3.821l-9.616-25.027v25.027H465.501z"/>
		<path d="M489.688,319.624v-37.625h14.781v4.031h-9.406v12.094h6.719v4.031h-6.719v13.438h9.406v4.031H489.688z"/>
		<path d="M507.766,319.624v-37.625h6.719c4.004,0,7.02,0.777,9.049,2.33c2.031,1.555,3.045,4.137,3.045,7.748
			c0,2.239-0.398,4.115-1.197,5.627c-0.797,1.512-1.965,2.548-3.506,3.107l6.047,18.813h-5.332l-5.418-17.469h-4.031v17.469H507.766z
			 M513.141,298.124h1.344c2.24,0,3.92-0.473,5.039-1.417c1.121-0.945,1.68-2.488,1.68-4.63s-0.559-3.685-1.68-4.63
			c-1.119-0.944-2.799-1.417-5.039-1.417h-1.344V298.124z"/>
		<path d="M539.764,319.624v-37.625h14.781v4.031h-9.406v12.094h6.719v4.031h-6.719v17.469H539.764z"/>
		<path d="M566.704,320.002c-1.891,0-3.51-0.287-4.861-0.86c-1.352-0.574-2.426-1.414-3.223-2.52
			c-0.799-1.106-1.379-2.404-1.742-3.896c-0.365-1.49-0.547-3.223-0.547-5.196v-13.647c0-1.974,0.182-3.695,0.547-5.165
			c0.363-1.47,0.943-2.747,1.742-3.832c0.797-1.084,1.871-1.9,3.223-2.445c1.352-0.547,2.971-0.819,4.861-0.819
			c3.666,0,6.313,1.05,7.936,3.149c1.625,2.1,2.436,5.137,2.436,9.112v13.647c0,1.945-0.186,3.664-0.557,5.154
			c-0.371,1.491-0.955,2.793-1.752,3.905c-0.799,1.113-1.873,1.96-3.223,2.541C570.192,319.711,568.579,320.002,566.704,320.002z
			 M562.788,313.892c0.721,1.135,2.025,1.701,3.916,1.701c1.889,0,3.193-0.566,3.916-1.701c0.721-1.133,1.08-2.806,1.08-5.018
			v-16.335c0-2.184-0.357-3.814-1.07-4.892c-0.715-1.078-2.023-1.617-3.926-1.617c-1.904,0-3.213,0.539-3.928,1.617
			c-0.713,1.077-1.07,2.708-1.07,4.892v16.335C561.706,311.086,562.067,312.759,562.788,313.892z"/>
		<path d="M581.778,319.624v-37.625h6.719c4.004,0,7.02,0.777,9.049,2.33c2.031,1.555,3.045,4.137,3.045,7.748
			c0,2.239-0.398,4.115-1.197,5.627c-0.797,1.512-1.965,2.548-3.506,3.107l6.047,18.813h-5.332l-5.418-17.469h-4.031v17.469H581.778z
			 M587.153,298.124h1.344c2.24,0,3.92-0.473,5.039-1.417c1.121-0.945,1.68-2.488,1.68-4.63s-0.559-3.685-1.68-4.63
			c-1.119-0.944-2.799-1.417-5.039-1.417h-1.344V298.124z"/>
		<path d="M613.776,319.624v-37.625h14.781v4.031h-9.406v12.094h6.719v4.031h-6.719v17.469H613.776z"/>
		<path d="M631.014,319.624v-37.625h6.719c4.002,0,7.02,0.777,9.049,2.33c2.029,1.555,3.045,4.137,3.045,7.748
			c0,2.239-0.398,4.115-1.197,5.627c-0.797,1.512-1.967,2.548-3.506,3.107l6.047,18.813h-5.334l-5.416-17.469h-4.031v17.469H631.014z
			 M636.389,298.124h1.344c2.238,0,3.918-0.473,5.039-1.417c1.119-0.945,1.68-2.488,1.68-4.63s-0.561-3.685-1.68-4.63
			c-1.121-0.944-2.801-1.417-5.039-1.417h-1.344V298.124z"/>
		<path d="M654.278,319.624v-37.625h14.781v4.031h-9.406v12.094h6.719v4.031h-6.719v13.438h9.406v4.031H654.278z"/>
		<path d="M672.354,319.624v-37.625h7.434l5.332,28.807l5.334-28.807h7.432v37.625h-5.375v-29.688l-5.375,29.688h-4.031
			l-5.375-29.688v29.688H672.354z"/>
		<path d="M707.27,319.624v-32.838h-6.719v-4.787h18.813v4.787h-6.719v32.838H707.27z"/>
		<path d="M722.284,319.624v-37.625h5.375v37.625H722.284z"/>
		<path d="M733.411,319.624v-37.625h8.336c3.934,0,6.709,0.805,8.324,2.414c1.617,1.61,2.426,4.389,2.426,8.336v14.781
			c0,4.129-0.822,7.178-2.467,9.144c-1.645,1.967-4.42,2.95-8.326,2.95H733.411z M738.786,315.593h2.961
			c0.881,0,1.637-0.08,2.268-0.241c0.629-0.161,1.141-0.455,1.533-0.882c0.391-0.427,0.699-0.833,0.924-1.218
			c0.223-0.385,0.381-0.983,0.473-1.796c0.09-0.812,0.143-1.479,0.156-2.005c0.014-0.524,0.021-1.34,0.021-2.446
			c0-0.363,0-0.637,0-0.818v-12.094c0-0.686-0.004-1.231-0.01-1.638c-0.008-0.406-0.029-0.885-0.064-1.438
			c-0.035-0.553-0.086-0.99-0.156-1.313c-0.07-0.321-0.168-0.682-0.295-1.081c-0.125-0.398-0.283-0.71-0.473-0.935
			c-0.188-0.224-0.42-0.458-0.691-0.703c-0.273-0.244-0.588-0.427-0.945-0.546c-0.357-0.118-0.773-0.217-1.25-0.294
			c-0.475-0.076-1.008-0.115-1.596-0.115h-2.855V315.593z"/>
		<path d="M757.2,319.624v-37.625h14.781v4.031h-9.406v12.094h6.719v4.031h-6.719v13.438h9.406v4.031H757.2z"/>
		<path d="M775.278,319.624v-37.625h4.031l9.406,23.264v-23.264h5.375v37.625h-3.82l-9.617-25.027v25.027H775.278z"/>
	</g><!--/Vi Designer for Fremtiden-->

	<!--Våbenskjold-->
	<path fill="#D7532D" d="M291.701,46.214c-0.018-3.117-2.551-5.623-5.67-5.623c-0.078,0-226.651,0-226.772,0
		c-3.121,0-5.665,2.537-5.676,5.654v-0.029c0,0,0,180.708,0,181.259c0,65.748,53.283,119.049,119.027,119.049
		c65.668,0,118.969-53.178,119.092-118.814V46.214z"/>
	<!--/Våbenskjold-->

	<g><!--Bølger-->
		<path fill="#FFFFFF" d="M72.182,261.612c3.291,3.613,12.657,7.129,18.65,9.258c15.375,5.451,29.453,6.498,42.906,5.512
			c17.438-1.285,32.955-7.793,46.828-13.359c31.174-12.5,44.139-15.494,68.813-11.105c10.064,1.789,21.938,5.436,25.455,6.906
			c-1.404,4.705-6.051,14.691-6.299,14.6c-4.338-1.574-24.314-8.484-39.439-8.484c-14.178,0-25.146,3.953-30.43,5.771
			c-5.195,1.51-22.004,8.332-32.611,11.305c-6.84,1.912-27.41,9.607-54.652,1.967c-11.576-3.25-29.421-9.504-39.056-21.91
			C71.998,261.472,71.704,261.087,72.182,261.612z"/>
		<path fill="#FFFFFF" d="M105.496,292.694c12.201,4.203,24.748,7.5,38.49,6.477c9.842-0.734,20.627-2.836,30.518-6.107
			c4.445-1.469,25.334-9.221,28.482-10.168c13.936-4.229,26.742-3.537,31.773-2.9c11.596,1.434,24.957,7.061,25.215,7.211
			c-4.34,5.676-6.795,8.635-11.58,13.301c-5.959-2.824-14.102-7.904-34.855-5.117c-7.367,0.986-16.561,3.74-25.133,6.639
			c-10.385,3.508-22.701,7.936-36.902,8.176c-39.768,0.678-62.351-18.566-69.403-28.922c-0.297-0.436-0.588-0.67,0.109-0.154
			C86.365,284.19,92.049,288.067,105.496,292.694z"/>
		<path fill="#FFFFFF" d="M132.232,237.351c33.311-2.383,54.316,2.563,65.193,5.816c0,0-6.648,2.85-8.268,3.508
			c-20.018,8.094-36.092,15.643-52.961,17.422c-18.285,1.932-30.9,0.307-52.941-9.359C84.549,252.894,95.285,239.991,132.232,237.351
			z"/>
		<path fill="#FFFFFF" d="M113.876,313.485c-0.455-0.311-1.131-0.881,0.063-0.328c6.941,3.207,11.965,6.723,28.705,8.273
			c19.902,1.848,37.041-2.799,42.563-4.254c3.07-0.805,18.523-6.711,26.432-8.072c5.949-1.025,11.338-1.715,17.309,0.252
			c1.748,0.578,3.846,2.061,5.207,2.91c-10.604,7.229-24.611,14.816-46.734,17.924c-14.471,2.035-31.957,0.984-49.393-4.789
			C130.468,322.95,120.378,317.884,113.876,313.485z"/>
	</g><!--/Bølger-->

	<!--Mus-->
	<path fill-rule="evenodd" clip-rule="evenodd" fill="#FFFFFF" d="M239.676,138.092c9.022,2.16,17.151,6.449,25.153,10.909
		c7.702,4.293,14.479,9.815,18.055,18.167c2.707,6.321,4.047,12.886-0.003,19.343c-2.071,3.3-4.846,5.881-8.088,7.938
		c-4.554,2.888-9.238,5.57-13.79,8.461c-4.648,2.951-7.854,7.307-11.033,11.684c-4.254,5.855-8.941,11.287-16.166,13.563
		c-5.704,1.796-11.584,1.607-17.443,0.975c-4.979-0.539-9.971-1.116-14.813-2.44c-6.649-1.817-13.158-3.952-18.689-8.37
		c-1.88-1.501-4.034-2.666-5.878-4.262c-0.88-0.762-2.016-0.719-3.141-0.449c-19.008,4.554-36.234-0.375-52.304-10.32
		c-21.009-13-36.633-31.035-47.602-53.049c-5.708-11.453-9.55-23.536-9.543-36.55c0.01-20.07,10.868-34.711,30.103-40.652
		c8.15-2.519,16.478-3.648,25.006-3.833c19.293-0.417,38.081,2.795,56.714,7.377c12.423,3.054,24.573,6.996,36.77,10.822
		c19.615,6.153,38.995,4.675,58.057-2.621c1.001-0.383,1.998-0.779,3.142-0.945c-1.552,2.092-3.654,3.511-5.758,4.884
		c-10.595,6.913-22.367,8.59-34.705,7.713c-13.182-0.937-25.615-5.241-38.284-8.479c-14.979-3.83-30.097-6.96-45.476-8.606
		c-15.646-1.675-31.299-2.116-46.738,1.771c-9.664,2.432-18.531,6.417-25.141,14.264c-7.228,8.58-9.249,18.668-8.186,29.527
		c1.619,16.534,8.871,30.774,18.561,43.869c11.216,15.156,24.917,27.503,42.086,35.695c9.184,4.382,18.822,6.918,29.044,6.848
		c3.608-0.023,7.175-0.625,10.696-1.453c1.524-0.359,1.593-0.898,0.479-1.945c-2.171-2.037-4.341-4.086-5.753-6.784
		c-2.016-3.856-2.677-7.813-1.163-12.015c2.217-6.158,5.84-11.465,10.202-16.231c8.573-9.373,17.332-18.566,27.923-25.775
		c8.392-5.712,17.447-9.54,27.698-10.147C229.887,136.96,237.989,137.688,239.676,138.092z M179.397,211.832
		c4.226,2.725,8.394,4.437,12.786,5.588c6.152,1.613,12.447,2.591,18.75,3.221c5.678,0.564,11.407,0.494,17.006-1.273
		c5.552-1.752,8.618-6.127,11.513-10.591c5.15-7.944,11.634-14.231,20.243-18.409c4.629-2.248,9.176-4.805,12.722-8.747
		c1.37-1.521,2.235-3.18,2.327-5.242c0.14-3.148,0.752-5.917-0.606-9.373c-1.525-3.881-8.326-7.049-10.967-7.848
		c-8.259-2.5-14.247-0.081-18.378,7.458c-1.74,3.172-3.062,6.519-4.247,9.932c-2.696,7.769-4.864,15.746-8.922,22.983
		c-3.388,6.042-7.929,10.848-14.977,12.258c-9.187,1.839-17.686-0.633-25.718-5.004c-0.775-0.422-1.228-0.438-1.865-0.033
		C186.147,208.598,183.023,210.055,179.397,211.832z M228.524,144.922c-0.902-0.42-1.583-0.167-2.254-0.035
		c-7.513,1.478-13.368,5.449-17.789,11.68c-5.669,7.993-7.786,17.497-11.784,26.866c0.732-0.525,0.982-0.663,1.184-0.854
		c6.852-6.492,12.869-13.654,17.954-21.633C219.489,155.211,221.978,148.524,228.524,144.922z M165.32,190.775
		c-0.802,2.088-0.63,3.776-0.3,5.477c0.755,3.889,3.145,6.741,5.878,9.396c3.522,3.42,4.559,3.519,8.647,0.7
		c0.258-0.177,0.543-0.333,0.753-0.558c0.669-0.711,1.982-1.182,1.702-2.297c-0.217-0.863-1.481-0.624-2.274-0.865
		C173.429,200.711,167.566,198.271,165.32,190.775z"/>
	<!--/Mus-->
</svg>
